<?xml version="1.0" encoding="utf-8"?>
<!-- Generator: Adobe Illustrator 16.0.0, SVG Export Plug-In . SVG Version: 6.00 Build 0)  -->
<!DOCTYPE svg PUBLIC "-//W3C//DTD SVG 1.1//EN" "http://www.w3.org/Graphics/SVG/1.1/DTD/svg11.dtd">
<svg version="1.1" xmlns="http://www.w3.org/2000/svg" xmlns:xlink="http://www.w3.org/1999/xlink" x="0px" y="0px" width="4000px"
	 height="4000px" viewBox="0 0 4000 4000" enable-background="new 0 0 4000 4000" xml:space="preserve">
<g id="Layer_4">
	<circle fill="#E3F9FC" cx="1948.297" cy="2422.336" r="1620.536"/>
</g>
<g id="Layer_1">
	<g>
		<g transform="translate(-794 -984)">
			<g transform="translate(794 984)">
				<polygon display="none" fill="#E8F8F8" points="3370.896,3332.638 3019.354,2723.683 3258.657,2723.683 3258.657,2723.683 
					2933.882,2161.195 3163.931,2161.195 3163.931,2161.195 2518.657,1043.583 2493.483,1087.364 2493.483,1087.364 
					1873.483,2161.195 2103.532,2161.195 1778.757,2723.683 2018.159,2723.683 1666.519,3332.638 2320.149,3332.638 
					2320.149,3833.932 2717.364,3833.932 2717.364,3332.638 				"/>
				<polygon display="none" fill="#E8F8F8" points="1767.513,3437.514 1521.542,3011.543 1688.905,3011.543 1688.905,3011.543 
					1461.742,2617.911 1622.737,2617.911 1622.737,2617.911 1171.194,1835.852 1153.483,1866.438 1153.483,1866.438 
					719.692,2617.911 880.717,2617.911 653.393,3011.543 820.906,3011.543 574.816,3437.514 1032.19,3437.514 1032.19,3788.459 
					1310.1,3788.459 1310.1,3437.514 				"/>
				<path display="none" fill="#00BABA" d="M3038.657,3703.186l266.248,153.383c69.445-12.391,151.254-51.695,211.811-156.656
					c-72.33-29.166-153.85-21.563-219.859,20.507c45.139-63.943,87.779-155.661,66.527-258.905
					c-126.109,52.408-163.752,139.711-170,213.622c-23.611-55.684-69.445-112.219-156.389-151.522
					c-19.705,58.259-19.115,121.722,1.668,179.582L3038.657,3703.186z"/>
				<path display="none" fill="#00BABA" d="M427.105,3646.568c-63.357,8.882-118.757,47.275-149.313,103.482
					c7.392-62.658,1.819-143.622-53.788-206.965c-69.367,87.107-62.09,163.074-37.3,217.422
					c-38.664-29.225-93.702-50.035-170.577-42.757c35.253,157.384,167.274,172.278,226.527,170.807v2.729
					c0,0,3.98-1.024,10.462-3.185c11.372-0.796,18.764-1.933,18.764-1.933l-1.365-4.663
					c50.945-21.265,153.971-83.24,156.587-234.935L427.105,3646.568z"/>
				<path fill="#06F768" d="M-105.994,3992.885c0,0,1702.083-1173.241,4062.417,0
					C3917.657,4006.695-105.993,3992.885-105.994,3992.885L-105.994,3992.885z"/>
				<g transform="translate(362.5 209.5) scale(-1 1) translate(-39.5 -82.5)">
					<path fill="#875A3B" d="M-2884.249,2365.07c0-1.798,52.391-64.139,52.391-64.139l7.432-42.561l-45.916,22.059l-9.711-22.179
						l-9.352,4.676l-7.672,30.45l-11.99,43.159l-33.328,30.69l-135.592,114.736c0,0-21.219,5.515-53.109,15.706
						c-23.977,7.673-54.309,18.342-85.959,31.409c-14.027,5.875-28.293,11.989-42.439,18.822
						c-16.904,17.024-32.969,34.646-47.955,53.109l121.205,108.736c58.744-42.08,119.891-53.229,155.85-91.833
						c61.502-38.364,107.305-131.87,130.797-194.1c3.236-8.032,5.994-15.705,8.271-23.138c9.111-27.214,11.99-43.159,7.793-35.967
						l-0.719,0.36L-2884.249,2365.07z"/>
					<path fill="#875A3B" d="M-3342.696,3040.871c-3.717,7.313-7.074,14.866-10.191,22.539c-0.838,1.918-1.678,3.836-2.396,5.754
						c-3.117,7.673-6.115,15.466-8.752,23.978c-2.639,8.032-5.035,16.185-7.434,23.977c-0.6,2.038-1.078,4.076-1.678,6.114
						c-4.676,17.024-8.633,34.408-11.99,51.911c0,1.678,0,3.236-0.959,4.795c-3.596,18.582-6.594,37.045-9.471,55.389
						c0.057,0.236,0.057,0.482,0,0.719c-5.275,34.768-9.471,68.456-13.906,98.906c-41.961,83.921-91.594,265.791-124.438,438.548
						c18.822,7.313,35.967,22.898,44.717,20.86c0-0.72,0-41.001,13.787-62.221c60.902-89.915,237.852-319.254,359.662-609.383
						c-28.293-16.305-182.109-56.467-226.945-81.883L-3342.696,3040.871z"/>
					<path fill="#724C33" d="M-3207.345,3605.737c26.975-106.219,71.934-359.662,71.934-359.662
						c7.793-58.385,14.506-118.925,19.301-179.83v-2.158c1.559-20.261,2.998-40.762,4.076-61.143
						c-32.129-6.114-219.273,7.193-269.98-1.559v33.328v6.954c0,10.55,1.08,20.86,1.918,30.811v3.357
						c0.721,9.471,1.799,18.582,2.879,27.453v4.196c1.318,9.591,2.756,18.942,4.436,28.054v3.236
						c3.477,18.822,7.672,36.806,11.988,53.949v1.919c5.035,17.862,10.67,35.007,17.023,51.91
						c7.074,18.582,14.746,36.926,23.02,55.388c-11.15,93.152-2.639,298.995,23.977,472.717
						c15.943,0.035,31.559-4.545,44.957-13.188l44.477-155.73L-3207.345,3605.737z"/>
					<path fill="#222222" d="M-3121.991,3816.981l-8.631-26.016l-117.613-30.331c-13.416,8.617-29.012,13.232-44.957,13.308
						l-5.873,42.561L-3121.991,3816.981L-3121.991,3816.981z"/>
					<polygon fill="#222222" points="-3534.519,3773.896 -3540.392,3816.384 -3363.802,3816.981 -3372.429,3791.011 
						-3486.563,3761.559 					"/>
					<path fill="#875A3B" d="M-3258.06,2385.568l40.76-6.474l-22.658-45.917l14.746-10.909l-55.268-63.54
						c-5.131,20.788-17.34,39.142-34.527,51.91c-6.678-2.548-14.191-1.521-19.939,2.725c-5.75,4.245-8.943,11.124-8.473,18.256
						c2.158,15.585,21.459,19.661,21.459,19.661l-5.994,55.628l38.963,52.391l-11.148,25.775
						c27.574,20.142,48.914,45.558,114.975,16.065l-72.891-115.572L-3258.06,2385.568z"/>
					<path fill="#FC0877" d="M-3077.036,3360.861c17.264-254.039-45.916-749.532-107.9-859.711
						c-71.932,0-88.355-2.997-105.502-32.489l-5.035,5.035c0,0-151.652,247.93-140.984,875.174
						c117.959,26.732,239.939,30.801,359.422,11.989V3360.861z"/>
					<path fill="#875A3B" d="M-3130.587,2622.882c52.086,19.998,98.15,38.663,98.15,38.663l130.078-96.629l57.307-42.8
						l14.146-42.439l9.83-30.931l8.271-1.079l3.477,23.978l43.998-16.186l-7.432,41.241c0,0-35.967,45.317-47.955,49.753
						c-2.037,5.155-31.17,66.896-40.041,88.116c-49.154,118.448-148.299,260.279-325.971,162.926
						c0.016-0.077,0.029-0.153,0.045-0.23c-27.402-15.47-53.059-33.841-76.531-54.798
						c-114.488-100.229-26.137-174.558,20.26-160.169c26.254,8.271,65.338,22.538,102.627,36.686l9.83,3.716
						c-0.027,0.061-0.055,0.12-0.082,0.181L-3130.587,2622.882z"/>
					<path fill="#875A3B" d="M-3332.149,2413.628c20.213,24.823,52.588,36.293,83.92,29.732
						c46.756-11.989,73.73-65.218,59.943-119.891c-13.787-54.669-62.342-89.676-109.215-78.166
						c-23.111,6.016-42.379,21.947-52.629,43.519c-11.596,23.719-14.359,50.795-7.793,76.368
						c4.539,17.995,13.385,34.616,25.777,48.434L-3332.149,2413.628z"/>
					<path display="none" fill="#36231D" d="M-3317.046,2354.643c15.705-94.23,76.627-116.159,58.145-123.003
						c-4.316-9.831-25.656-52.03-64.26-41.24c-18.055,5.149-32.652,18.461-39.443,35.966c0,0-41.959-25.176-67.615,12.828
						c-29.732,43.998,15.105,68.935,15.105,68.935s-39.082-4.915-29.973,58.865c9.111,63.78,56.348,42.08,56.348,42.08
						s-15.227,28.413,20.02,47.954c39.684,21.819,68.576-19.78,68.576-19.78c-2.57-2.369-5.012-4.862-7.317-7.468
						c-8.549-9.663-15.228-20.87-19.657-33.054c0-1.319,0.6-2.518,0.959-3.956c-3.357-5.155-5.875-9.711-8.031-13.787
						c-2.518-6.594-4.797-13.308-6.834-19.902c0.119-11.628,14.385-8.152,23.977-4.436L-3317.046,2354.643z"/>
				</g>
				<path display="none" fill="#148481" d="M97.771,3958.807c0,0,735.861-620.786,1881.194,9.553
					C1939.278,3968.359,97.771,3958.807,97.771,3958.807L97.771,3958.807z"/>
				<path display="none" fill="#FF644A" d="M384.916,3117.911c0,0,66.184,57.427,88.472,49.922
					c14.215-4.89,29.908-38.777,35.935-98.479c-1.706-12.168-30.59,97.342-124.408,48.558L384.916,3117.911z"/>
				<path display="none" fill="#FF644A" d="M430.965,2956.718c0,0,45.486,39.005,60.043,34.115
					c9.779-3.185,20.355-26.269,24.449-66.753C514.206,2915.438,494.647,2989.809,430.965,2956.718z"/>
				<path display="none" fill="#FF644A" d="M602.229,3256.816c0,0,48.443,42.189,64.819,36.617
					c10.462-3.639,21.833-28.429,26.269-72.097C692.066,3212.354,671.028,3292.638,602.229,3256.816z"/>
				<rect x="-51.99" y="3941.295" display="none" fill="#053534" width="3980.1" height="56.858"/>
				<path fill="#1BA004" d="M2687.612,2413.434c0.047,34.967-20.98,66.515-53.273,79.928c-32.291,13.413-69.482,6.047-94.223-18.662
					c-24.742-24.708-32.156-61.891-18.787-94.199c13.371-32.308,44.893-53.378,79.857-53.378c47.686,0,86.361,38.625,86.424,86.312
					H2687.612z"/>
				<path fill="#FFC729" d="M1744.738,2195.551c0.047,34.967-20.98,66.515-53.273,79.928c-32.291,13.413-69.482,6.047-94.223-18.662
					c-24.742-24.708-32.156-61.891-18.787-94.199c13.371-32.308,44.893-53.378,79.857-53.378c47.686,0,86.361,38.625,86.424,86.312
					H1744.738z"/>
				<path fill="#16A80B" d="M2845.821,2413.434c0.047,34.967-20.98,66.515-53.273,79.928c-32.291,13.412-69.482,6.047-94.223-18.662
					c-24.742-24.708-32.156-61.891-18.787-94.199c13.371-32.308,44.893-53.378,79.857-53.378c47.686,0,86.361,38.625,86.424,86.312
					H2845.821z"/>
				<path fill="#1BB704" d="M2978.259,2413.434c0,47.731-38.693,86.425-86.424,86.425c-47.732,0-86.426-38.693-86.426-86.425
					s38.693-86.425,86.426-86.425c22.92,0,44.902,9.105,61.111,25.313C2969.153,2368.53,2978.259,2390.513,2978.259,2413.434z"/>
				<path fill="#1DA505" d="M3169.204,2413.434c0.092,35.021-20.934,66.646-53.264,80.113s-69.588,6.119-94.385-18.612
					c-24.799-24.732-32.244-61.972-18.863-94.337s44.951-53.475,79.975-53.475
					C3130.372,2327.123,3169.079,2365.729,3169.204,2413.434L3169.204,2413.434z"/>
				<path fill="#1C7F04" d="M2773.981,2327.065c-0.064,47.717-38.785,86.354-86.502,86.312
					c-47.715-0.042-86.369-38.746-86.348-86.463c0.02-47.716,38.707-86.387,86.424-86.387c22.951-0.03,44.969,9.081,61.186,25.32
					S2774.042,2304.116,2773.981,2327.065L2773.981,2327.065z"/>
				<path fill="#FFB42E" d="M1831.161,2168.729c-0.064,47.717-38.785,86.354-86.502,86.312
					c-47.715-0.042-86.369-38.746-86.348-86.463c0.02-47.716,38.707-86.387,86.424-86.387c22.951-0.03,44.969,9.081,61.186,25.32
					S1831.222,2145.779,1831.161,2168.729L1831.161,2168.729z"/>
				<path fill="#188E07" d="M2922.538,2282.091c0,47.731-38.693,86.425-86.426,86.425c-47.73,0-86.424-38.693-86.424-86.425
					s38.693-86.425,86.424-86.425c22.922,0,44.904,9.105,61.111,25.313C2913.433,2237.188,2922.538,2259.169,2922.538,2282.091z"/>
				<path fill="#FFC729" d="M1948.297,2149.28c0,47.731-38.693,86.425-86.426,86.425c-47.73,0-86.424-38.693-86.424-86.425
					s38.693-86.425,86.424-86.425c22.922,0,44.904,9.105,61.111,25.313C1939.191,2104.377,1948.297,2126.358,1948.297,2149.28z"/>
				<path fill="#0D5905" d="M3071.692,2326.966c0,47.731-38.693,86.425-86.426,86.425c-47.73,0-86.424-38.693-86.424-86.425
					s38.693-86.425,86.424-86.425c22.922,0,44.904,9.105,61.111,25.313C3062.587,2282.063,3071.692,2304.045,3071.692,2326.966z"/>
				<path fill="#FFA515" d="M2200.023,2168.615c0,47.731-38.693,86.425-86.426,86.425c-47.73,0-86.424-38.693-86.424-86.425
					s38.693-86.425,86.424-86.425c22.922,0,44.904,9.105,61.111,25.313C2190.918,2123.712,2200.023,2145.694,2200.023,2168.615z"/>
				<path fill="#FFA515" d="M2066.674,2195.666c0,47.731-38.693,86.425-86.426,86.425c-47.73,0-86.424-38.693-86.424-86.425
					s38.693-86.425,86.424-86.425c22.922,0,44.904,9.105,61.111,25.313C2057.568,2150.763,2066.674,2172.745,2066.674,2195.666z"/>
				<path fill="#1D021E" d="M1830.597,3263.384c34.117-277.582,88.131-390.736,110.986-502.746
					c85.742-17.284,169.553,272.239,169.553,272.239s84.945-40.598,60.041,15.692c-26.381,59.36-123.492,400.397-423.711,752.696
					l-24.334-5.686l-64.82-16.034c49.125-131.801,117.244-323.185,172.279-516.159L1830.597,3263.384z"/>
				<path fill="#BA27A6" d="M2272.388,2716.021h-410.516c5.344,21.38,11.371,43.099,18.193,65.388
					c98.82,238.01,138.17,303.97,225.842,425.642c11.371,135.781,129.861,432.13,235.961,604.746l77.326-12.622
					c-26.268-164.667-105.871-666.607-146.807-1083.185V2716.021z"/>
				<path fill="#C88E66" d="M1625.423,3864.479c9.781-25.245,21.607-55.722,34.684-90.975l64.82,16.034l-29.453,76.076
					C1673.087,3875.527,1647.476,3875.111,1625.423,3864.479L1625.423,3864.479z"/>
				<path fill="#222222" d="M1625.423,3864.479c22.02,10.707,47.631,11.206,70.051,1.365l103.82,36.162l33.205,39.459h-237.672
					c0,0,11.6-28.201,30.59-76.985L1625.423,3864.479z"/>
				<path fill="#222222" d="M2427.015,3848.559l138.508,1.705l34.115,29.794l-205.939,61.294l-18.877-69.254
					c19.939-0.139,38.893-8.687,52.195-23.539H2427.015z"/>
				<path fill="#C88E66" d="M2419.155,3799.205c5.686,35.139,7.619,49.012,7.732,49.354c-13.25,14.793-32.109,23.337-51.969,23.539
					l-17.4-63.228l61.635-9.666L2419.155,3799.205z"/>
				<path fill="#C88E66" d="M2385.423,1787.175l-21.15-1.706l-15.238,56.859l-50.377-35.139l2.615,75.735l-76.418-16.148
					l7.961-91.884l46.396-36.389c0,0-13.645-18.422-3.752-34.115c5.041-6.58,13.084-10.142,21.344-9.451s15.602,5.537,19.48,12.862
					c24.705,2.003,49.33-4.717,69.594-18.991L2385.423,1787.175L2385.423,1787.175z"/>
				<path fill="#C88E66" d="M2467.513,2440.299c0,0-104.846-220.268-129.293-308.746
					c-127.363,22.744-164.668,191.731-209.691,222.657c50.717,382.656,582.795,229.145,582.795,229.145L2467.513,2440.299
					L2467.513,2440.299z"/>
				<path fill="#36231D" d="M2394.776,1660.16c3.07,7.619,0.797,25.928-6.141,30.362c-44.236,28.202-71.643,19.56-72.324,18.194
					c-3.879-7.325-11.221-12.172-19.48-12.862s-16.303,2.871-21.344,9.451c-9.893,15.125,3.752,34.116,3.752,34.116
					c-13.189,22.742-45.486,45.486-48.783,39.688c-1.936-5.355-2.861-11.024-2.73-16.717c-0.609-5.842-2.682-11.434-6.027-16.262
					c-6.27-6.7-13.424-12.516-21.264-17.285c-7.67-7.63-14.148-16.369-19.219-25.927c0,0-24.221-52.992,62.203-117.812
					c21.721-16.261,65.502-5.23,86.539,0c43.213,10.235,64.818,75.055,64.818,75.055V1660.16z"/>
				<path fill="#C9C8C7" d="M1861.841,2716.021c0,0,188.996,126.796,471.244,17.399c54.357-253.931,1.82-717.214-26.041-765.085
					l60.27-31.954l-161.592-150.219l-21.947,78.238c0,0-353.203,234.367-321.93,851.631L1861.841,2716.021z"/>
				<path fill="#6E4C37" d="M2434.577,2436.816c-17.398,42.531,60.727,149.543,88.699,160.797
					c27.975,11.258,490.119,21.492,592.807,0c102.688-21.493,133.84-159.204,121.453-184.219
					c-42.531-86.198-787.723-12.169-802.955,23.426L2434.577,2436.816z"/>
				<path display="none" fill="#FFFFFF" d="M2283.233,2054.329c-79.602-547.661-304.188,328.189-234.367,77.669
					c-13.354,46.361-21.74,94.012-25.018,142.149c87.354-37.022,181.473-55.419,276.328-54.017
					c-4.891-60.838-10.916-124.069-16.945-165.801L2283.233,2054.329z"/>
				<path fill="#C88E66" d="M2313.284,2397.712c0,0-5.346-86.083-12.965-177.621c-94.863-1.403-188.975,16.993-276.328,54.016
					c-27.633,491.711,710.955,322.388,710.955,322.388l-421.662-198.775V2397.712z"/>
				<path fill="#C88E66" d="M2740.747,2646.966c0,0-49.012-12.168-62.771-25.131c-8.529,0.568-112.697-1.023-121.453,0
					l109.512-48.444l4.662,1.479l92.453-11.372l58.564,47.42L2740.747,2646.966L2740.747,2646.966z"/>
				<path fill="#875A3B" d="M1175.473,3844.977c0-1.365,8.869-62.999,8.869-62.999l-69.594,1.705l-11.373,82.673
					C1128.971,3866.355,1154.016,3858.93,1175.473,3844.977L1175.473,3844.977z"/>
				<path fill="#050235" d="M1376.667,3935.424l-13.873-41.621l-187.403-48.443c-21.458,13.952-46.503,21.379-72.097,21.379
					l-9.324,68.229L1376.667,3935.424L1376.667,3935.424z"/>
				<path fill="#000307" d="M1352.19,2617.016c-51.514-9.779-321.932,17.058-403.125,3.07
					c46.624,229.821,35.935,348.886,98.82,487.961c-2.047,171.144-13.42,347.064,40.597,673.891
					c32.068,2.502,103.821-2.047,103.821-2.047c43.213-168.189,131.682-659.901,159.891-1162.886L1352.19,2617.016z"/>
				<path fill="#031B33" d="M1257.264,3207.065c44.69-74.826,119.512-441.452,119.402-550.736
					c0-72.779-122.925,49.694-130.089-28.202c-42.758-34.684-258.816,55.039-300.209,18.991
					c-11.372,133.841,17.967,339.214,43.213,485.114c-93.135,222.886-216.06,477.612-274.627,592.01l88.13,52.424
					c180.199-164.995,333.453-357.193,454.189-569.611L1257.264,3207.065z"/>
				<path fill="#061C59" d="M757.224,3799.305c0,0-31.841,13.646-77.214-8.302c-21.947,41.394-34.797,64.364-34.797,64.364
					l132.936,77.896l111.213,3.525l-20.241-43.439l-45.486-11.373L757.224,3799.305L757.224,3799.305z"/>
				<path fill="#875A3B" d="M757.224,3799.305l20.925-37.3l-63.454-37.754c-9.666,18.536-27.292,52.31-34.911,66.752
					C725.384,3812.95,757.225,3799.305,757.224,3799.305L757.224,3799.305z"/>
				<path fill="#875A3B" d="M1436.269,1834.031c0,0-14.328-13.987-7.847-28.43c3.412-6.397,9.849-10.615,17.076-11.19
					c7.227-0.575,14.25,2.571,18.631,8.348c21.671-1.678,42.069-10.892,57.655-26.04l13.19,84.491l-18.422,1.364l-5.344,51.628
					l-53.221-10.12l-6.141,67.207l-44.69-18.65l-3.524-49.012l-2.047-25.018L1436.269,1834.031L1436.269,1834.031z"/>
				<path fill="#754E34" d="M1899.851,2431.842c-3.865,1.592-7.959,3.298-12.053,4.776
					C1892.573,2435.14,1895.985,2433.434,1899.851,2431.842z"/>
				<path fill="#754E34" d="M1352.786,2146.668c-42.136-6.319-84.571-10.456-127.134-12.396
					c-46.397-2.16-90.974-5.458-136.458-10.349c-20.895,17.919-35.943,41.684-43.213,68.23
					c-25.131,148.627,307.951,209.015,464.646,228.567c88.29,33.793,182.997,47.505,277.245,40.142
					c11.373-38.891,9.211-74.029,23.539-117.015l-235.283-46.511c-69.989-56.537-144.707-106.945-223.343-150.676L1352.786,2146.668
					z"/>
				<path fill="#754E34" d="M1887.812,2436.618h-0.91H1887.812z"/>
				<path fill="#754E34" d="M1912.388,2426.17c-3.979,1.934-8.188,3.866-12.508,5.686
					C1903.974,2429.923,1908.409,2428.104,1912.388,2426.17z"/>
				<path fill="#E0A205" d="M889.592,2768.657c0,0,213.791,155.334,487.055,106.667c47.648-222.776,117.125-794.886,92.68-836.846
					l52.879-28.315l-141.354-131.453l-19.104,68.23c-31.213,9.634-60.805,23.894-87.79,42.303
					c-6.596,4.207-13.305,8.756-20.242,13.76c-111.672,79.83-231.979,186.159-364.119,765.661L889.592,2768.657z"/>
				<path display="none" fill="#222222" d="M1095.772,2257.016c37.071-60.61,44.576-131.91,90.974-168.865
					c43.667-35.253,109.055-27.406,142.259-50.832c69.481-49.012,107.572-203.323,107.572-203.323s-14.328-13.987-7.847-28.429
					c3.412-6.397,9.849-10.616,17.075-11.191c7.228-0.575,14.251,2.571,18.633,8.349c21.67-1.679,42.068-10.892,57.654-26.041
					c4.32-70.96-74.484-84.037-102.349-86.312c-0.487-0.108-0.991-0.108-1.478,0h-8.074c-5.482,0.002-10.957,0.42-16.375,1.251
					c-76.986,12.85-98.139,88.244-147.831,108.029c-49.694,19.787-73.007-17.058-162.847,12.509
					c-89.839,29.566-84.149,78.01-134.865,105.304c-50.717,27.292-198.209-43.781-273.83,76.531
					c-213.563,339.9,241.651,556.646,421.322,263.024L1095.772,2257.016z"/>
				<path display="none" fill="#12B700" d="M1996.069,2146.668c0,0,250.18-29.566,159.205-122.021
					c-90.975-92.451-151.811-89.837-214.588,108.149c-56.176-70.732-53.105-187.403-129.521-141.233
					c-76.418,46.169-107.234,92.451-87.449,103.482c19.787,11.03,134.756,51.628,134.756,51.628h137.602L1996.069,2146.668z"/>
				<path display="none" fill="#F42414" d="M1694.179,2513.633c25.588,14.441,81.877,21.721,145.781,23.881
					c32.979,1.251,68.23,1.251,101.662,0c93.363-2.843,178.199-13.191,188.09-23.994c20.697-22.744,91.883-295.662,65.16-318.408
					c-19.787-17.285-101.553-35.593-198.775-48.558c-44.01-6.026-90.975-11.372-137.145-13.873
					c-113.723-7.847-220.27-5.459-254.041,15.92c-26.041,16.262,13.646,322.498,89.268,365.035V2513.633z"/>
				<g>
					<path fill="#FFC729" d="M1744.738,2195.551c0.047,34.967-20.98,66.515-53.273,79.928
						c-32.291,13.413-69.482,6.047-94.223-18.662c-24.742-24.708-32.156-61.891-18.787-94.199
						c13.371-32.308,44.893-53.378,79.857-53.378c47.686,0,86.361,38.625,86.424,86.312H1744.738z"/>
					<path fill="#FFB42E" d="M1831.161,2168.729c-0.064,47.717-38.785,86.354-86.502,86.312
						c-47.715-0.042-86.369-38.746-86.348-86.463c0.02-47.716,38.707-86.387,86.424-86.387c22.951-0.03,44.969,9.081,61.186,25.32
						S1831.222,2145.779,1831.161,2168.729L1831.161,2168.729z"/>
					<path fill="#FFC729" d="M1948.297,2149.28c0,47.731-38.693,86.425-86.426,86.425c-47.73,0-86.424-38.693-86.424-86.425
						s38.693-86.425,86.424-86.425c22.922,0,44.904,9.105,61.111,25.313C1939.191,2104.377,1948.297,2126.358,1948.297,2149.28z"/>
					<path fill="#FFA515" d="M2200.023,2168.615c0,47.731-38.693,86.425-86.426,86.425c-47.73,0-86.424-38.693-86.424-86.425
						s38.693-86.425,86.424-86.425c22.922,0,44.904,9.105,61.111,25.313C2190.918,2123.712,2200.023,2145.694,2200.023,2168.615z"/>
					<path fill="#FFA515" d="M2066.674,2195.666c0,47.731-38.693,86.425-86.426,86.425c-47.73,0-86.424-38.693-86.424-86.425
						s38.693-86.425,86.424-86.425c22.922,0,44.904,9.105,61.111,25.313C2057.568,2150.763,2066.674,2172.745,2066.674,2195.666z"/>
				</g>
				<path fill="#512F02" d="M1478.291,2168.615h879.45v89.002h-95.69c0,0-395.148,699.296-741.454,0h-42.306V2168.615z"/>
				<path display="none" fill="#12B700" d="M1839.95,2537.514c32.979,1.251,68.23,1.251,101.662,0l54.471-390.846
					c-44.01-6.027-90.975-11.373-137.145-13.874l-18.99,404.716L1839.95,2537.514z"/>
				<path display="none" fill="#EAEAEA" d="M995.872,2426.866c-3.309,1.843-5.483,5.211-5.801,8.984
					c-1.528,5.446-2.668,10.995-3.411,16.603c0,8.87,13.419,8.87,13.874,0c0.655-5.146,1.954-10.189,3.866-15.011
					c2.09-2.541,2.107-6.2,0.042-8.761C1002.377,2426.121,998.797,2425.362,995.872,2426.866z"/>
				<path display="none" fill="#EAEAEA" d="M1009.602,2521.892c-2.08-1.456-3.889-3.265-5.344-5.345
					c-4.208-7.847-16.148-0.91-11.373,7.051c1.063,2.346,2.707,4.381,4.776,5.913c1.479,0.909,3.185,2.956,2.616,1.023
					c0.742,2.253,2.567,3.981,4.857,4.6c2.291,0.618,4.738,0.044,6.514-1.529c1.906-1.561,2.824-4.027,2.4-6.455
					C1013.625,2524.723,1011.925,2522.713,1009.602,2521.892L1009.602,2521.892z"/>
				<path display="none" fill="#EAEAEA" d="M1087.115,2473.135c-3.081,0.082-5.751,2.154-6.596,5.118
					c-0.796,2.047-2.274,3.866-3.07,6.141c-0.916,2.879-1.489,5.856-1.706,8.87v0.682c0,3.831,3.105,6.938,6.938,6.938
					c3.83,0,6.937-3.106,6.937-6.938c0.345-3.328,1.391-6.545,3.07-9.438c1.649-2.126,1.944-5.007,0.761-7.423
					C1092.263,2474.667,1089.806,2473.135,1087.115,2473.135L1087.115,2473.135z"/>
				<path display="none" fill="#EAEAEA" d="M1048.01,2459.702c1.137,1.365,1.023,0.91,0-1.251c-0.424-1.092-0.918-2.155-1.479-3.184
					c1.592,3.07-0.682-2.274-1.137-2.957c-5.345-6.937-17.399,0-11.372,7.051c-0.065-0.604-0.065-1.215,0-1.819
					c-0.026,1.252,0.331,2.481,1.023,3.525c0.683,1.479,1.364,2.843,1.933,4.321c0.975,2.589,2.772,4.786,5.117,6.254
					C1048.579,2476.419,1055.516,2465.047,1048.01,2459.702L1048.01,2459.702z"/>
				<path display="none" fill="#EAEAEA" d="M1053.084,2533.234v12.509c-0.934,2.096-0.731,4.523,0.536,6.437
					s3.425,3.045,5.719,3.002c3.831,0,6.937-3.105,6.937-6.937c0-5.004,0-9.894,0.568-15.011
					C1067.527,2524.25,1053.654,2524.25,1053.084,2533.234L1053.084,2533.234z"/>
				<path display="none" fill="#EAEAEA" d="M1025.821,2579.802c-1.379-0.704-2.709-1.503-3.979-2.388
					c-2.388-1.593-2.047,0-3.753-3.298c-4.662-7.506-16.717-0.569-11.372,7.05c4.093,5.871,10.009,10.229,16.83,12.396
					c2.088,0.567,4.321,0.128,6.038-1.188c1.718-1.316,2.723-3.358,2.718-5.521c0.197-1.824-0.401-3.644-1.644-4.994
					C1029.417,2580.508,1027.655,2579.758,1025.821,2579.802L1025.821,2579.802z"/>
				<path display="none" fill="#EAEAEA" d="M1107.911,2578.807c-5.031,4.958-9.252,10.676-12.508,16.944l0.909-0.683
					c-3.639,4.891,0,13.646,6.71,11.373c2.912-1.16,5.134-3.591,6.026-6.596c2.19-4.104,5.121-7.766,8.643-10.804
					C1123.717,2581.992,1113.938,2572.213,1107.911,2578.807L1107.911,2578.807z"/>
				<path display="none" fill="#EAEAEA" d="M1130.697,2526.568c-3.888-2.912-8.129-5.32-12.623-7.164
					c-1.959-1.655-4.671-2.094-7.052-1.142s-4.042,3.141-4.319,5.689c0.052,3.08,2.066,5.781,5.003,6.71
					c-3.639-1.593,2.389,1.819,3.07,1.933c2.356,0.698,4.584,1.773,6.596,3.185
					C1127.286,2541.92,1137.178,2532.254,1130.697,2526.568z"/>
				<path display="none" fill="#EAEAEA" d="M970.597,2625.971c-2.486-1.549-5.161-2.772-7.96-3.639
					c-3.922-0.234-7.771-1.158-11.372-2.729c-2.997-0.886-6.216,0.341-7.862,2.997s-1.314,6.085,0.812,8.375
					c5.772,2.342,11.7,4.279,17.74,5.8c2.014,1.586,4.729,1.954,7.093,0.962c2.363-0.993,4.002-3.19,4.279-5.738v-0.683
					C973.292,2629.208,972.284,2627.235,970.597,2625.971L970.597,2625.971z"/>
				<path display="none" fill="#EAEAEA" d="M969.403,2574.229v14.442c0,3.831,3.105,6.937,6.938,6.937
					c3.83,0,6.937-3.105,6.937-6.937v-14.442c0-3.831-3.105-6.937-6.937-6.937S969.403,2570.398,969.403,2574.229z"/>
				<path display="none" fill="#EAEAEA" d="M1073.782,2652.041c0.062-0.567,0.062-1.14,0-1.706l-1.365-6.481
					c-0.682-3.299-1.364-6.482-2.16-9.666c-1.296-3.299-4.869-5.09-8.286-4.155c-3.418,0.936-5.582,4.296-5.019,7.794
					c0.909,3.979,1.705,7.847,2.502,11.372c0.349,2.378,0.842,4.732,1.478,7.05c-0.063,0.415-0.063,0.837,0,1.252
					c0.219,0.539,0.526,1.039,0.91,1.478c1.239,2.133,3.521,3.443,5.988,3.437s4.743-1.329,5.97-3.469
					C1075.028,2656.807,1075.02,2654.174,1073.782,2652.041L1073.782,2652.041z"/>
				<path display="none" fill="#EAEAEA" d="M1025.721,2644.379c-2.066,2.295-4.31,4.424-6.709,6.368l-2.843,1.819
					c-1.663,0.519-2.948,1.847-3.411,3.525c-1.371,2.381-1.207,5.348,0.418,7.563c1.625,2.216,4.404,3.264,7.087,2.672
					c1.562-0.308,2.923-1.256,3.753-2.615l2.956-2.047c2.84-2.255,5.501-4.727,7.96-7.392
					C1041.755,2647.791,1031.976,2638.011,1025.721,2644.379z"/>
				<path display="none" fill="#EAEAEA" d="M979.951,2686.07c-0.279-0.43-0.625-0.813-1.023-1.137
					c-2.047-3.185-4.89-6.255-7.051-9.211c-5.117-7.278-17.058,0-11.94,6.937c3.153,3.855,6.041,7.921,8.643,12.168
					c1.613,2.632,4.772,3.881,7.75,3.064c2.977-0.816,5.056-3.503,5.1-6.59C981.395,2689.46,980.885,2687.658,979.951,2686.07
					L979.951,2686.07z"/>
				<path display="none" fill="#EAEAEA" d="M1062.438,2685.474c-2.595,0.439-5.216,0.705-7.846,0.796
					c-3.461,0.445-6.051,3.392-6.051,6.88s2.59,6.435,6.051,6.88c3.865,0,7.164-0.796,11.371-1.137
					c3.787-0.063,6.824-3.15,6.823-6.937c0.25-2.575-0.978-5.069-3.169-6.442S1064.646,2684.125,1062.438,2685.474
					L1062.438,2685.474z"/>
				<path display="none" fill="#EAEAEA" d="M1116.866,2643.882c-1.017,3.718-1.664,7.526-1.934,11.372v0.568v0.568
					c0,3.831,3.106,6.938,6.938,6.938s6.937-3.106,6.937-6.938c0.149-3.115,0.646-6.205,1.479-9.211
					c0.542-3.55-1.715-6.926-5.202-7.783C1121.596,2638.54,1118.032,2640.485,1116.866,2643.882L1116.866,2643.882z"/>
				<path display="none" fill="#EAEAEA" d="M1186.12,2665.274c-2.136-2.553-4.454-4.947-6.937-7.164
					c-6.823-5.686-16.603,4.094-9.78,9.779c3.358,3.018,6.441,6.329,9.211,9.894c2.228,2.254,5.713,2.678,8.416,1.023
					c2.443-1.516,3.945-4.174,3.979-7.05c0.227-1.511-0.164-3.049-1.083-4.269C1189.006,2666.27,1187.634,2665.472,1186.12,2665.274
					L1186.12,2665.274z"/>
				<path display="none" fill="#EAEAEA" d="M1159.652,2593.732c-2.275,4.047-4.032,8.364-5.231,12.85
					c-0.295,0.618-0.523,1.267-0.682,1.934v1.25v0.683c-0.029,3.499,2.551,6.473,6.02,6.935c3.469,0.463,6.738-1.73,7.627-5.115
					c0.949-3.976,2.441-7.802,4.435-11.372c1.979-3.359,0.858-7.688-2.502-9.666
					C1165.958,2589.252,1161.63,2590.371,1159.652,2593.732L1159.652,2593.732z"/>
				<path display="none" fill="#EAEAEA" d="M1239.652,2641.493c-3.045-1.829-5.868-4.005-8.415-6.481
					c-1.533-2.698-4.672-4.05-7.686-3.311c-3.014,0.741-5.17,3.393-5.278,6.494c0,6.027,7.733,11.372,12.964,14.442
					c1.615,1.604,3.887,2.362,6.141,2.046h0.569c2.341-0.678,4.153-2.533,4.776-4.89
					C1243.735,2646.65,1242.467,2643.222,1239.652,2641.493L1239.652,2641.493z"/>
				<path display="none" fill="#EAEAEA" d="M1053.682,2372.141c-1.814,0.012-3.559,0.701-4.891,1.933
					c-1.219,0.937-2.512,1.773-3.865,2.502c-3.418,1.408-6.289,3.881-8.188,7.051c-3.979,8.073,7.96,15.011,11.94,7.05
					c0-1.137,2.16-1.592,3.184-2.046c1.476-0.765,2.789-1.807,3.867-3.07c3.068-1.154,4.91-4.299,4.416-7.539
					C1059.651,2374.779,1056.955,2372.327,1053.682,2372.141L1053.682,2372.141z"/>
				<path display="none" fill="#EAEAEA" d="M1094.081,2408.16c-4.811,0.281-9.633,0.281-14.442,0
					c-8.757-1.137-8.757,12.736,0,13.874c4.81,0.281,9.632,0.281,14.442,0c2.478,0,4.768-1.322,6.007-3.469s1.239-4.79,0-6.937
					S1096.558,2408.16,1094.081,2408.16L1094.081,2408.16z"/>
				<path display="none" fill="#EAEAEA" d="M1143.135,2355.723c-2.193-2.179-4.245-4.496-6.142-6.938
					c-2.384-1.973-4.521-4.226-6.368-6.709c-3.525-8.188-15.465-1.137-11.372,6.937c2.246,3.671,5.136,6.906,8.528,9.553
					c2.704,3.307,5.712,6.353,8.984,9.098C1143.475,2372.894,1150.412,2360.84,1143.135,2355.723L1143.135,2355.723z"/>
				<path display="none" fill="#EAEAEA" d="M1081.642,2309.056c-4.637,3.22-8.518,7.411-11.372,12.281
					c-3.298,4.776,0,13.078,7.051,10.69c2.284-1.033,4.163-2.793,5.344-5.004c2.258-2.996,4.984-5.607,8.074-7.732
					C1098.471,2313.264,1088.579,2303.483,1081.642,2309.056L1081.642,2309.056z"/>
				<path display="none" fill="#EAEAEA" d="M1150.1,2264.18c-2.957,0-5.572-3.639-8.529-4.321c-3.539-0.682-7.011,1.46-7.988,4.929
					c-0.979,3.469,0.862,7.109,4.236,8.377c1.826,0.852,3.545,1.921,5.117,3.184c2.252,1.033,4.688,1.613,7.164,1.706
					C1158.97,2278.963,1158.856,2265.09,1150.1,2264.18L1150.1,2264.18z"/>
				<path display="none" fill="#EAEAEA" d="M1207.214,2209.752c-4.776-2.502-7.278-8.643-12.054-11.372
					c-8.074-3.866-15.012,8.074-7.051,11.372c1.706,0.796,3.753,3.866,5.231,5.231c2.073,2.17,4.401,4.079,6.937,5.686
					C1208.238,2226.241,1215.289,2213.732,1207.214,2209.752L1207.214,2209.752z"/>
				<path display="none" fill="#EAEAEA" d="M1219.951,2104.379c-3.11,0.068-5.821,2.136-6.71,5.117
					c-1.933,4.662-3.297,9.666-5.23,14.442c-3.298,8.301,10.12,11.372,13.419,3.639c1.479-3.866,2.729-7.732,4.094-11.372
					c2.084-2.068,2.641-5.225,1.39-7.881C1225.661,2105.668,1222.873,2104.088,1219.951,2104.379L1219.951,2104.379z"/>
				<path display="none" fill="#EAEAEA" d="M1279.951,2079.006c-1.138,0-2.388-1.479-3.525-1.934
					c-7.96-3.639-15.011,8.302-6.937,11.94c3.248,1.836,6.787,3.105,10.461,3.753
					C1288.821,2093.902,1288.707,2080.029,1279.951,2079.006L1279.951,2079.006z"/>
				<path display="none" fill="#EAEAEA" d="M1339.254,2044.279c-1.881,4.602-2.995,9.48-3.299,14.442
					c-0.682,4.89-2.615,10.007,0,14.441c1.668,2.577,4.81,3.779,7.771,2.974c2.962-0.805,5.062-3.433,5.194-6.499v-1.137
					c0.129-0.753,0.129-1.522,0-2.274c0-1.706,0-3.525,0.796-5.231c0.067-3.207,0.604-6.387,1.592-9.438
					C1355.061,2042.688,1343.121,2035.637,1339.254,2044.279L1339.254,2044.279z"/>
				<path display="none" fill="#EAEAEA" d="M1398.657,2021.553c-2.879-1.241-5.964-1.935-9.098-2.047h-0.682
					c-1.246-0.698-2.67-1.015-4.094-0.909c-3.256,0.231-5.91,2.7-6.375,5.93c-0.465,3.23,1.384,6.349,4.441,7.488
					c3.753,1.934,8.529,0.797,12.395,2.844c2.129,1.202,4.732,1.196,6.854-0.017s3.45-3.453,3.494-5.897
					c0.33-1.961-0.274-3.964-1.636-5.415C1402.596,2022.079,1400.635,2021.348,1398.657,2021.553L1398.657,2021.553z"/>
				<path display="none" fill="#EAEAEA" d="M1409.205,1954.459c-2.536,3.995-4.167,8.498-4.776,13.19
					c-1.479,8.757,11.94,12.509,13.305,3.753c0.427-3.502,1.59-6.873,3.411-9.894
					C1426.375,1954.004,1414.094,1947.067,1409.205,1954.459L1409.205,1954.459z"/>
				<path display="none" fill="#EAEAEA" d="M1482.139,2012.448c-1.798-3.336-3.027-6.948-3.639-10.689
					c-1.592-8.756-14.896-5.003-13.305,3.753c1.138,6.368,4.891,19.445,12.965,19.445c2.965-0.063,5.562-2.005,6.461-4.831
					c0.898-2.826-0.098-5.912-2.48-7.678H1482.139z"/>
				<path display="none" fill="#EAEAEA" d="M1452.19,2078.409c-2.875,2.134-5.472,4.616-7.733,7.392
					c-1.933,2.047-3.866,3.979-5.572,6.141c-2.127,1.076-3.419,3.305-3.298,5.686v1.137c0.045,3.087,2.124,5.773,5.102,6.59
					c2.977,0.816,6.135-0.432,7.748-3.064c1.617-2.491,3.568-4.749,5.8-6.709c1.128-0.92,2.122-1.992,2.957-3.185
					c0,0,4.89-3.752,2.047-2.047c3.163-2.005,4.163-6.159,2.259-9.385S1455.473,2076.607,1452.19,2078.409L1452.19,2078.409z"/>
				<path display="none" fill="#EAEAEA" d="M1297.264,2667.165c-6.938,0-13.76-1.137-20.811-1.137
					c-1.829-0.001-3.582,0.734-4.865,2.038c-1.282,1.305-1.988,3.069-1.957,4.898v0.568c-0.02,2.104,0.964,4.089,2.648,5.348
					c1.686,1.258,3.869,1.637,5.88,1.021c6.368,0,12.736,1.138,19.104,1.138c3.831,0,6.938-3.105,6.938-6.938
					C1304.202,2670.271,1301.095,2667.165,1297.264,2667.165L1297.264,2667.165z"/>
				<path display="none" fill="#EAEAEA" d="M1156.567,2428.757c0-1.364,0.797-2.729,1.138-4.094
					c1.448-4.255,2.514-8.632,3.185-13.077c0.682-8.87,14.556-8.87,13.873,0c0,6.823-4.207,13.191-4.662,19.787
					c0.009,5.476-3.395,10.377-8.529,12.281c-2.088,0.567-4.32,0.129-6.038-1.188s-2.723-3.357-2.718-5.521v-2.274
					C1152.772,2432.127,1154.249,2429.803,1156.567,2428.757L1156.567,2428.757z"/>
				<path display="none" fill="#EAEAEA" d="M1177.364,2335.822c3.07-8.302,11.372-11.373,16.717-16.944
					c5.344-5.572,16.147,3.524,9.779,9.779c-2.127,2.377-4.577,4.444-7.278,6.141c-1.706,1.138-5.117,2.616-5.913,4.662
					C1187.485,2347.762,1174.18,2344.236,1177.364,2335.822L1177.364,2335.822z"/>
				<path display="none" fill="#EAEAEA" d="M1214.975,2468.657c2.259,6.968,3.895,14.123,4.891,21.38c0,8.983-13.42,8.983-13.874,0
					c-0.915-6.029-2.361-11.966-4.321-17.74C1199.851,2463.54,1213.156,2459.901,1214.975,2468.657L1214.975,2468.657z"/>
				<path display="none" fill="#EAEAEA" d="M1176.169,2504.877c1.592,2.047,4.776,5.003,5.231,7.619
					c0.176,1.171,0.735,2.251,1.592,3.07c0.91,1.478,0,3.184,1.137,4.548c4.321,7.847-7.619,14.783-11.372,6.937
					c-0.925-1.656-1.541-3.467-1.819-5.344c-1.127-2.457-2.459-4.816-3.98-7.051
					C1160.931,2507.72,1170.71,2497.939,1176.169,2504.877L1176.169,2504.877z"/>
				<path display="none" fill="#EAEAEA" d="M1257.264,2560.797c7.846-2.615,13.646-8.756,21.947-10.348
					c8.301-1.593,12.395,11.371,3.639,13.304c-7.526,2.983-14.856,6.44-21.947,10.349
					C1252.488,2577.058,1248.849,2563.64,1257.264,2560.797z"/>
				<path display="none" fill="#EAEAEA" d="M1167.612,2756.519c2.115-1.631,3.471-4.055,3.753-6.71c0-8.869,14.329-8.869,13.761,0
					c-0.236,6.317-3.026,12.27-7.733,16.489C1171.137,2772.666,1161.358,2762.886,1167.612,2756.519L1167.612,2756.519z"/>
				<path display="none" fill="#EAEAEA" d="M1082.936,2743.185c5.005-1.688,9.267-5.064,12.053-9.552
					c5.004-7.278,16.945,0,11.373,7.051c-4.654,7.554-11.884,13.169-20.355,15.807
					C1078.045,2759.105,1074.407,2745.688,1082.936,2743.185L1082.936,2743.185z"/>
				<path display="none" fill="#EAEAEA" d="M962.338,2732.538c6.508-0.218,13.006,0.667,19.219,2.616
					c8.301,2.843,4.775,16.261-3.753,13.304c-5.006-1.537-10.233-2.229-15.466-2.047c-3.831,0-6.938-3.105-6.938-6.937
					S958.507,2732.538,962.338,2732.538L962.338,2732.538z"/>
				<path display="none" fill="#EAEAEA" d="M1017.861,2730.25c0.446-3.46,3.392-6.051,6.88-6.051s6.434,2.591,6.88,6.051
					c0.797,6.762,0.797,13.594,0,20.354c-2.16,8.643-15.466,4.89-13.304-3.752c0.287-2.075,0.287-4.18,0-6.255
					C1017.52,2737.187,1017.862,2733.661,1017.861,2730.25L1017.861,2730.25z"/>
				<path display="none" fill="#EAEAEA" d="M925.981,2736.519c3.524,7.164,9.893,20.014,1.023,25.586
					c-6.369,4.094-12.169-3.639-9.439-9.098c-0.348-1.347-0.766-2.676-1.25-3.979c-0.593-1.921-1.354-3.785-2.274-5.572
					C909.833,2735.494,921.773,2728.444,925.981,2736.519L925.981,2736.519z"/>
				<path display="none" fill="#EAEAEA" d="M1000.448,2800.598c4.901-0.365,9.828,0.135,14.557,1.479
					c8.415,2.729,4.775,16.148-3.639,13.305c-3.717-0.919-7.558-1.226-11.373-0.91c-3.83-0.125-6.834-3.333-6.709-7.164
					C993.41,2803.476,996.618,2800.472,1000.448,2800.598L1000.448,2800.598z"/>
				<path display="none" fill="#EAEAEA" d="M1095.772,2806.17v-4.207c0.795-8.757,14.669-8.87,13.873,0
					c0.056,5.727-1.479,11.355-4.435,16.261c-2.009,3.246-6.21,4.346-9.553,2.502c-2.843-1.8-4.562-4.936-4.548-8.301
					c-0.228-1.45,0.139-2.931,1.016-4.107S1094.317,2806.366,1095.772,2806.17L1095.772,2806.17z"/>
				<path display="none" fill="#EAEAEA" d="M1250.498,2820.498c6.477,2.755,10.866,8.901,11.372,15.921
					c1.138,8.87-12.736,8.756-13.873,0c0-0.683-2.729-3.185-0.683-2.502c-3.334-1.187-5.241-4.693-4.423-8.137
					C1243.708,2822.337,1246.986,2820.061,1250.498,2820.498L1250.498,2820.498z"/>
				<path display="none" fill="#EAEAEA" d="M1235.97,2738.011c6.368-3.866,9.212-9.211,17.399-10.12
					c8.188-0.91,8.643,12.85,0,13.873c-3.298,0-7.506,6.482-10.462,8.302C1235.289,2754.728,1228.352,2742.787,1235.97,2738.011
					L1235.97,2738.011z"/>
				<path display="none" fill="#EAEAEA" d="M1149.403,2820.101c6.141-3.07,7.164-11.372,14.329-13.419
					c3.705-1.005,7.523,1.185,8.528,4.89s-1.185,7.523-4.89,8.528c2.161-0.682,0,0,0,1.365l-3.07,3.866
					c-1.253,1.613-2.662,3.099-4.208,4.435c-1.118,2.087-3.318,3.363-5.686,3.298h-1.023
					C1146.333,2833.063,1142.921,2823.17,1149.403,2820.101L1149.403,2820.101z"/>
				<path display="none" fill="#EAEAEA" d="M1332.985,2843.583c6.255-3.298,11.373-8.415,17.854-11.372
					c8.302-3.412,11.372,10.007,3.639,13.419c-1.748,1.14-3.419,2.394-5.003,3.753c-3.009,2.183-6.162,4.158-9.439,5.913
					C1332.19,2859.73,1325.139,2847.79,1332.985,2843.583L1332.985,2843.583z"/>
				<path display="none" fill="#EAEAEA" d="M1310.995,2778.707c8.302-0.568,11.373,9.098,14.102,15.012
					c3.639,8.073-8.302,15.124-11.373,7.05c-0.682-1.478-1.25-2.956-1.933-4.321c-0.369-0.968-0.786-1.916-1.251-2.843
					c-0.199-0.456-0.467-0.878-0.796-1.251c-3.079-1.053-5.037-4.075-4.74-7.314
					C1305.3,2781.799,1307.776,2779.184,1310.995,2778.707L1310.995,2778.707z"/>
				<path display="none" fill="#EAEAEA" d="M1369.502,2720.101c2.729-0.568,12.282-1.706,13.191-3.753
					c3.639-8.074,15.579-1.023,11.372,6.938c-4.207,7.96-14.556,8.756-21.493,10.12
					C1364.159,2735.225,1360.52,2721.807,1369.502,2720.101L1369.502,2720.101z"/>
				<path display="none" fill="#EAEAEA" d="M1322.637,2717.514c0,3.184,0.91,6.141,1.137,9.324c0.683,8.87-13.19,8.756-13.873,0
					c0-3.184-0.91-6.141-1.137-9.324C1308.081,2708.644,1321.955,2708.644,1322.637,2717.514z"/>
				<path display="none" fill="#EAEAEA" d="M1326.02,2587.065c0.458,2.151,1.145,4.248,2.047,6.255
					c2.957,8.415-10.348,12.054-13.305,3.639c-1.269-3.18-2.146-6.502-2.615-9.894
					C1311.237,2578.764,1324.997,2578.764,1326.02,2587.065L1326.02,2587.065z"/>
				<path display="none" fill="#EAEAEA" d="M1383.831,2626.17c3.207-1.915,6.552-3.588,10.008-5.003
					c3.298-1.365,6.822-1.365,10.007-2.729c8.302-3.298,11.372,10.12,3.753,13.419c-2.729,1.023-5.345,1.023-8.074,1.819
					c-3.051,1.203-5.981,2.688-8.756,4.436C1382.807,2642.205,1375.872,2630.15,1383.831,2626.17L1383.831,2626.17z"/>
				<path display="none" fill="#EAEAEA" d="M1224.528,2385.474c-0.153,2.089,0.157,4.186,0.91,6.141
					c3.184,8.415-10.235,11.372-13.42,3.753c-1.188-3.161-1.768-6.518-1.705-9.894c0-3.926,3.182-7.107,7.107-7.107
					C1221.345,2378.366,1224.528,2381.548,1224.528,2385.474L1224.528,2385.474z"/>
				<path fill="#875A3B" d="M1930.2,2482.688l-7.961-8.301l-42.758,14.669l-59.473,19.446l-95.523-28.657l-216.059-64.818
					c0,0-19.787-76.305-42.417-156.816c-15.011-53.561-31.499-109.164-44.122-145.442
					c-22.744-64.023-179.443-100.756-196.279,110.418c-3.931,43.814-3.131,87.926,2.389,131.572
					c38.437,280.199,279.741,272.925,453.274,229.939c31.045-7.618,124.518-26.269,132.029-28.314
					c14.557,9.324,95.068,11.371,95.068,11.371l52.309-25.813l-54.584-35.821l24.109-23.426L1930.2,2482.688z"/>
			</g>
		</g>
	</g>
	<line fill="#512F02" x1="1063.226" y1="343.154" x2="1024.225" y2="373.157"/>
	<path fill="#36231D" d="M3808.808,2000"/>
	<g id="Layer_3">
		<path fill="#36231D" d="M3650.875,2377.68c0,0,107.044,113.537,40.058,194.133c0,0,135.514,110.596,185.014-27.404
			C3875.946,2544.408,3860.682,2162.277,3650.875,2377.68z"/>
	</g>
	<g id="Layer_2">
		<path fill="#222222" d="M1585.127,1784.376c0,0-29.622,31.323-57.655,26.04c0,0-23.767-15.938-37.37,10.073l9.51,21.2
			l-34.684,44.577l2.728,21.92c0,0-216.144,7.313-233.15-171.687C1234.507,1736.5,1491.755,1433.252,1585.127,1784.376z"/>
	</g>
</g>
</svg>
